<svg width="78" height="22" viewBox="0 0 78 22" fill="none" xmlns="http://www.w3.org/2000/svg">
<g id="Group">
<g id="Clip path group">
<mask id="mask0_120_386" style="mask-type:luminance" maskUnits="userSpaceOnUse" x="0" y="0" width="78" height="22">
<g id="SVGID_2_">
<path id="Vector" d="M77.0393 0.873047H0.960938V21.1269H77.0393V0.873047Z" fill="white"/>
</g>
</mask>
<g mask="url(#mask0_120_386)">
<g id="Group_2">
<path id="Vector_2" d="M29.3008 5.03259H25.1023C24.8302 5.03259 24.558 5.22697 24.5192 5.53797L22.8087 16.3063C22.7698 16.5007 22.9253 16.6951 23.1585 16.6951H25.1801C25.4522 16.6951 25.7243 16.5007 25.7632 16.1897L26.2297 13.2741C26.2686 13.002 26.5018 12.7687 26.8128 12.7687H28.1346C30.8947 12.7687 32.4886 11.447 32.9162 8.7646C33.1106 7.59835 32.9162 6.70422 32.3719 6.04335C31.7499 5.42135 30.7003 5.03259 29.3008 5.03259ZM29.7673 8.95897C29.534 10.4751 28.4067 10.4751 27.2793 10.4751H26.6573L27.0849 7.67609C27.1238 7.52059 27.2404 7.36509 27.4348 7.36509H27.7069C28.4456 7.36509 29.1842 7.3651 29.5341 7.79272C29.8062 8.06485 29.845 8.41472 29.7673 8.95897Z" fill="#253B80"/>
<path id="Vector_3" d="M41.8183 8.92008H39.8357C39.6802 8.92008 39.5247 9.03671 39.4858 9.23108L39.4081 9.77533L39.2526 9.58096C38.825 8.95896 37.8531 8.72571 36.8812 8.72571C34.6653 8.72571 32.7605 10.3973 32.4106 12.7687C32.2162 13.935 32.4883 15.0623 33.1492 15.8398C33.7712 16.5785 34.6264 16.8506 35.6761 16.8506C37.4643 16.8506 38.4751 15.6843 38.4751 15.6843L38.3973 16.2286C38.3584 16.423 38.514 16.6173 38.7472 16.6173H40.5743C40.8465 16.6173 41.1186 16.423 41.1575 16.112L42.246 9.23108C42.2071 9.11446 42.0516 8.92008 41.8183 8.92008ZM39.0193 12.8076C38.825 13.9738 37.9308 14.7125 36.7646 14.7125C36.1814 14.7125 35.7149 14.5181 35.4039 14.1682C35.0929 13.8183 34.9763 13.313 35.0929 12.7687C35.2873 11.6413 36.1814 10.825 37.3477 10.825C37.9308 10.825 38.3973 11.0193 38.6695 11.3692C39.0193 11.758 39.136 12.2633 39.0193 12.8076Z" fill="#253B80"/>
<path id="Vector_4" d="M52.5481 8.92029H50.5266C50.3322 8.92029 50.1378 8.99804 50.0601 9.19241L47.2611 13.2743L46.0948 9.34792C46.0171 9.11467 45.7838 8.92029 45.5506 8.92029H43.568C43.3347 8.92029 43.1403 9.15354 43.2181 9.38679L45.434 15.9178L43.3347 18.8723C43.1792 19.1055 43.3347 19.4165 43.6068 19.4165H45.6284C45.8227 19.4165 46.0171 19.3388 46.0948 19.1833L52.8202 9.50341C52.9757 9.23129 52.8202 8.92029 52.5481 8.92029Z" fill="#253B80"/>
<path id="Vector_5" d="M59.2344 5.03259H55.0359C54.7638 5.03259 54.4916 5.22697 54.4528 5.53797L52.7423 16.3063C52.7034 16.5007 52.8589 16.6951 53.0921 16.6951H55.2303C55.4246 16.6951 55.619 16.5396 55.619 16.3452L56.0855 13.313C56.1244 13.0408 56.3576 12.8076 56.6686 12.8076H57.9904C60.7505 12.8076 62.3444 11.4858 62.772 8.80347C62.9664 7.63722 62.772 6.74309 62.2278 6.08222C61.6835 5.42134 60.6339 5.03259 59.2344 5.03259ZM59.7009 8.95897C59.4676 10.4751 58.3403 10.4751 57.2129 10.4751H56.5909L57.0185 7.67609C57.0574 7.52059 57.174 7.36509 57.3684 7.36509H57.6405C58.3791 7.36509 59.1178 7.3651 59.4677 7.79272C59.7009 8.06485 59.7786 8.41472 59.7009 8.95897Z" fill="#179BD7"/>
<path id="Vector_6" d="M71.7522 8.92008H69.7307C69.5752 8.92008 69.4197 9.03671 69.3809 9.23108L69.3031 9.77533L69.1476 9.58096C68.72 8.95896 67.7481 8.72571 66.7762 8.72571C64.5604 8.72571 62.6555 10.3973 62.3056 12.7687C62.1112 13.935 62.3834 15.0623 63.0442 15.8398C63.6662 16.5785 64.5215 16.8506 65.5711 16.8506C67.3594 16.8506 68.3701 15.6843 68.3701 15.6843L68.2924 16.2286C68.2535 16.423 68.409 16.6173 68.6422 16.6173H70.4694C70.7415 16.6173 71.0136 16.423 71.0525 16.112L72.141 9.23108C72.141 9.11446 71.9855 8.92008 71.7522 8.92008ZM68.9532 12.8076C68.7589 13.9738 67.8647 14.7125 66.6985 14.7125C66.1153 14.7125 65.6488 14.5181 65.3378 14.1682C65.0268 13.8183 64.9102 13.313 65.0269 12.7687C65.2212 11.6413 66.1153 10.825 67.2816 10.825C67.8647 10.825 68.3312 11.0193 68.6034 11.3692C68.9144 11.758 69.031 12.2633 68.9532 12.8076Z" fill="#179BD7"/>
<path id="Vector_7" d="M74.1237 5.34359L72.4132 16.3063C72.3743 16.5007 72.5298 16.6951 72.7631 16.6951H74.5124C74.7846 16.6951 75.0567 16.5007 75.0956 16.1897L76.806 5.42134C76.8449 5.22697 76.6894 5.03259 76.4562 5.03259H74.5124C74.2792 5.03259 74.1626 5.14922 74.1237 5.34359Z" fill="#179BD7"/>
<path id="Vector_8" d="M5.39278 18.7944L5.70377 16.7729H5.00403H1.58301L3.9544 1.72825C3.9544 1.68938 3.99328 1.6505 4.03215 1.61163C4.07103 1.57275 4.1099 1.57275 4.14877 1.57275H9.90227C11.8071 1.57275 13.1289 1.9615 13.8286 2.739C14.1396 3.08888 14.3729 3.47763 14.4506 3.90525C14.5673 4.33288 14.5673 4.87713 14.4506 5.538V5.57688V6.0045L14.7616 6.19888C15.0338 6.35438 15.267 6.50988 15.4225 6.70425C15.6946 7.01525 15.889 7.404 15.9668 7.90938C16.0445 8.41475 16.0057 8.959 15.889 9.61988C15.7335 10.3585 15.5003 11.0194 15.1893 11.5636C14.8783 12.069 14.5284 12.4578 14.0619 12.8076C13.6343 13.1186 13.1289 13.3519 12.5458 13.4685C12.0015 13.624 11.3406 13.7018 10.6798 13.7018H10.2133C9.90226 13.7018 9.59127 13.8184 9.31914 14.0128C9.08589 14.2071 8.93039 14.5181 8.85264 14.8291L8.81377 15.0235L8.23065 18.6L8.19176 18.7166C8.19176 18.7555 8.19177 18.7944 8.15289 18.7944C8.15289 18.7944 8.11401 18.8333 8.07514 18.8333H5.39278V18.7944Z" fill="#253B80"/>
<path id="Vector_9" d="M15.0727 5.57751C15.0727 5.69414 15.0339 5.81077 14.995 5.92739C14.2175 9.81489 11.6518 11.1755 8.30851 11.1755H6.63686C6.24811 11.1755 5.89825 11.4865 5.8205 11.8753L4.96524 17.3566L4.732 18.9116C4.69313 19.1838 4.88749 19.417 5.15962 19.417H8.153C8.50287 19.417 8.81387 19.1449 8.85274 18.795L8.89163 18.6395L9.47476 15.063L9.51362 14.8686C9.5525 14.5188 9.86349 14.2466 10.2134 14.2466H10.6799C13.5955 14.2466 15.8502 13.0804 16.5111 9.65939C16.7832 8.22101 16.6277 7.05476 15.928 6.19951C15.6947 5.96626 15.4226 5.77189 15.0727 5.57751Z" fill="#179BD7"/>
<path id="Vector_10" d="M14.2948 5.2659C14.1781 5.22703 14.0615 5.18815 13.9449 5.18815C13.8283 5.14927 13.7117 5.14928 13.5562 5.1104C13.0897 5.03265 12.5843 4.99377 12.0789 4.99377H7.5694C7.45277 4.99377 7.33615 5.03265 7.2584 5.07153C7.06403 5.18815 6.90853 5.38252 6.86965 5.61577L5.89778 11.6803L5.85889 11.8747C5.93664 11.4859 6.24765 11.1749 6.67528 11.1749H8.3469C11.6513 11.1749 14.2559 9.81427 15.0334 5.92677C15.0723 5.81015 15.0723 5.69352 15.1112 5.5769C14.9168 5.46027 14.7224 5.38253 14.4891 5.30478C14.4114 5.30478 14.3336 5.30478 14.2948 5.2659Z" fill="#222D65"/>
<path id="Vector_11" d="M6.83102 5.6158C6.86989 5.38255 7.02539 5.18817 7.21977 5.07155C7.29752 5.03267 7.41416 4.9938 7.53078 4.9938H12.0403C12.5845 4.9938 13.0899 5.03267 13.5175 5.11042C13.6341 5.1493 13.7896 5.1493 13.9063 5.18817C14.0229 5.22705 14.1395 5.22705 14.2562 5.26592C14.295 5.26592 14.3728 5.3048 14.4116 5.3048C14.6449 5.38255 14.8393 5.4603 15.0337 5.57692C15.2669 4.13855 15.0337 3.16667 14.2562 2.27255C13.4009 1.30067 11.8459 0.873047 9.86328 0.873047H4.10977C3.72102 0.873047 3.37115 1.18405 3.2934 1.5728L0.883145 16.7729C0.84427 17.0839 1.07752 17.3561 1.38852 17.3561H4.92615L5.82027 11.6803L6.83102 5.6158Z" fill="#253B80"/>
</g>
</g>
</g>
</g>
</svg>
